<?xml version="1.0" encoding="UTF-8"?>
<svg id="Capa_1" xmlns="http://www.w3.org/2000/svg" version="1.1" viewBox="0 0 72.82 17.99">
  <!-- Generator: Adobe Illustrator 30.6.0, SVG Export Plug-In . SVG Version: 2.1.4 Build 75)  -->
  <defs>
    <style>
      .st0 {
        fill: #fff;
      }
    </style>
  </defs>
  <path class="st0" d="M10.3,0c.3,3.2.6,6.3,1,9.5.7-1.7,1.4-3.2,2.1-4.7s1.4-3,2.1-4.5c.1-.1.2-.3.3-.3h4.5c-.1,5.9-.3,11.7-.4,17.6h-4.7c.1-2.8.3-5.7.4-8.5h-.1c-.5,1.2-1,2.3-1.5,3.5-.7,1.6-1.4,3.2-2.1,4.8-.1.1-.3.3-.4.3-1.1.1-2.2.1-3.3.1-.3,0-.4-.1-.5-.5-.2-2.3-.4-4.5-.6-6.8,0-.4-.1-.9-.2-1.3-.5,1.7-.9,3.3-1.4,5-.3,1.1-.6,2.1-.9,3.2,0,0-.2.3-.3.3H0c.4-1.3.8-2.6,1.2-3.8C2.6,9.4,4,5,5.4.6,5.5.1,5.8,0,6.2,0h4.1Z"/>
  <path class="st0" d="M33.2,4.6c-.4,2.2-.8,4.4-1.1,6.6-.4,2.1-.7,4.3-1.1,6.4h-4.3c.1-.4.2-.8.2-1.1-.6.4-1.2.8-1.8,1.1-1.4.6-2.8.3-3.7-.6-.6-.6-.8-1.5-.9-2.3-.2-2.2.1-4.4,1.1-6.4,1.1-2.3,2.9-3.6,5.3-4,2.1-.4,4.2-.2,6.3.3h0ZM25.1,13.7c1.9-1.4,2.6-3.5,3.1-5.7-.9-.2-1.6.1-2.2.8-.6.8-.9,1.7-1.1,2.7,0,.7-.1,1.4.2,2.2h0Z"/>
  <path class="st0" d="M40.1,17.5c.3-1.4.5-2.7.8-4.1.6.1,1.1.3,1.7.4.4,0,.8,0,1.1-.1.4-.1.4-.5.1-.9-.5-.4-.9-.9-1.4-1.4-1.8-1.8-1.4-5.2,1-6.6,1.5-.9,3-.9,4.6-.8.4,0,.8.1,1.3.2-.3,1.3-.6,2.5-.8,3.8-.5-.1-.9-.2-1.4-.3-.3,0-.7,0-1,.1s-.4.5-.1.9c.5.6,1.1,1.1,1.6,1.8,1.7,2.3.8,5.2-1.4,6.5-1.4.8-3,1.1-4.6.8-.5-.2-1-.2-1.5-.3h0Z"/>
  <path class="st0" d="M41.2,4.2c-.3,1.2-.5,2.3-.7,3.5-.1.3-.2.3-.5.3-.6-.1-1.2-.2-1.7-.2-.2,0-.5.1-.5.3-.1.2.1.5.2.7.5.6,1.1,1.1,1.5,1.7,1.7,2.3.8,5.2-1.4,6.5-1.5.9-3.2,1-4.8.8-.4-.1-.7-.1-1.2-.2.3-1.4.5-2.7.8-4,.8.1,1.4.3,2.1.4.2,0,.4,0,.6-.1.4-.2.6-.5.2-.9-.4-.5-.9-.9-1.3-1.4-1.8-2-1.4-5.3.9-6.6,1.4-.8,2.9-1,4.5-.8.4-.1.8,0,1.3,0h0Z"/>
  <path class="st0" d="M55.1,11.3c2.1-2.1,4.2-4.1,6.5-5.7,2.3-1.6,4.7-2.9,7.4-3.5.8-.2,1.7-.2,2.6-.3.6,0,1.1.3,1.2.8s-.3,1-.9,1.2c-.8.2-1.6.5-2.3.7-2.9,1-5.4,2.7-7.9,4.6-2.6,2-4.4,4.7-6,7.5-.2.3-.4.7-.6,1-.3.5-.9.5-1.1.1-.3-.6-.7-1.4-.7-2.1-.3-2.4-.4-4.8-.6-7.2,0-.2,0-.5.1-.6.1-.2.3-.4.5-.4.1,0,.4.1.5.3.4.8.7,1.7,1.1,2.5-.1.3,0,.6.2,1.1h0Z"/>
</svg>