<?xml version="1.0" encoding="UTF-8"?>
<svg id="Capa_1" xmlns="http://www.w3.org/2000/svg" version="1.1" viewBox="0 0 70.4 19.1">
  <!-- Generator: Adobe Illustrator 30.6.0, SVG Export Plug-In . SVG Version: 2.1.4 Build 75)  -->
  <defs>
    <style>
      .st0 {
        fill: #fff;
        fill-rule: evenodd;
      }
    </style>
  </defs>
  <path class="st0" d="M68.9,3.5h-1.2v1.2h-.8v-1.2h-1.2v-.8h1.2v-1.2h.8v1.2h1.2v.8ZM67.3,0c-1.7,0-3.1,1.4-3.1,3.1s1.4,3.1,3.1,3.1,3.1-1.4,3.1-3.1-1.4-3.1-3.1-3.1ZM13.9,4.2l-2.2,7.1h0l-1,1h-2.5l-1.9,6-.7.7H1.7l-.7-.7,1.9-6.1H.7l-.7-.7h0l2.3-7.3.7-.7h10.2l.7.7ZM11.7,11.3h0ZM21,6.5l-.9,2.9v.1h-1.3l.1-.2.9-2.9v-.1h1.3l-.1.2ZM26.2,3.5h-10.3l-.7.7-2.9,9.3h-3.2l-.3.9-1.2,3.8.8.7h6.9l.7-.7,1.9-6.1h1.3l-1.9,6.2.7.7h3.7l.7-.7,4.4-14.1-.6-.7ZM47.9,16.3h-1.1v-.1l-1.2-3.9-.1-.2h1.3v.1l1.2,3.9.1.2h-.2ZM44.6,9.5v-.1l-.9-2.9-.1-.2h1.3v.1l.9,2.9.1.2h-1.3ZM50.2,11.3l.9-1.8-1.7-5.3-.7-.7h-10.2l-.7.7.1.2,4.3,13.9.7.7h10.2l.7-.7-2.2-7.1h-1.4v.1ZM36.2,3.5l4.7,14.8-.8.8h-4.4l-.9-2.9h-.6l-.9,2.9h-2l-.9-2.9h-.6l-.9,2.9h-4.4l-.7-.7,4.7-14.8h2.4l1.2,3.9h.5l1.2-3.9h2.4v-.1ZM60.9,16.3h-1.1v-.1l-3.1-9.7-.1-.2h1.3v.1l3.1,9.7.1.2h-.2ZM61.7,3.5h-10.2l-.7.7,4.4,14.1.7.7h10.2l.7-.7-4.4-14.1-.7-.7Z"/>
</svg>