<?xml version="1.0" encoding="UTF-8"?>
<svg id="Capa_1" xmlns="http://www.w3.org/2000/svg" version="1.1" viewBox="0 0 70.5 32.2">
  <!-- Generator: Adobe Illustrator 30.6.0, SVG Export Plug-In . SVG Version: 2.1.4 Build 75)  -->
  <defs>
    <style>
      .st0 {
        fill: #fff;
        fill-rule: evenodd;
      }
    </style>
  </defs>
  <path class="st0" d="M60.6,0H3.6C1.6,0,0,1.6,0,3.6h64.1c0-2-1.6-3.6-3.5-3.6Z"/>
  <path class="st0" d="M3.6,32h57c2,0,3.6-1.6,3.6-3.6H0C0,30.4,1.6,32,3.6,32Z"/>
  <path class="st0" d="M12.6,26.7H0V5.3h44.2c-1,.2-2,1.6-2.1,1.8l-4.8,6.1-2-2.5-2.2,3,1.9,2.5-2.9,3.7-1.7,2.1c-.2.3-.3.6-.4.9-.1.6.2,1.2.7,1.6.5.4,1,.5,1.6.3.4-.1.7-.3.9-.6l1-1.2h0l3.1-3.9,4.1,5.2c.6.8,1.7.9,2.5.3.8-.6.9-1.7.3-2.5l-4.6-5.9,5.6-7.4c2.7-3.2,5.4-3.4,6.7-3.4h12.2v21.4H19.8c1-.2,2.1-1.6,2.2-1.8l4.8-6.1,2,2.6,2.2-2.9-2-2.5,2.9-3.7,1.7-2.2c.2-.3.3-.6.4-.9.1-.6-.2-1.2-.7-1.6s-1-.5-1.6-.3c-.4.1-.7.3-.9.6l-1,1.2h0l-3.1,3.9-4.1-5.2c-.6-.8-1.7-.9-2.5-.3s-.9,1.7-.3,2.5l4.6,5.9-5.6,7.4c-2.3,2.7-4.7,3.2-6.2,3.3ZM19.6,16c0,4.9-4,8.9-8.9,8.9S1.8,20.9,1.8,16,5.8,7.1,10.7,7.1s8.9,4,8.9,8.9ZM58.8,16c0,3-2.4,5.3-5.3,5.3s-5.3-2.4-5.3-5.3,2.4-5.3,5.3-5.3,5.3,2.4,5.3,5.3ZM62.3,16c0,4.9-4,8.9-8.9,8.9s-8.9-4-8.9-8.9,4-8.9,8.9-8.9,8.9,4,8.9,8.9ZM16.1,16c0,3-2.4,5.3-5.3,5.3s-5.3-2.4-5.3-5.3,2.4-5.3,5.3-5.3,5.3,2.4,5.3,5.3Z"/>
  <path class="st0" d="M68.2,30.1h.2c.3,0,.5-.1.5-.3s-.1-.3-.4-.3h-.3s0,.6,0,.6ZM68.2,31.3h-.5v-2c.2,0,.4-.1.8-.1s.5.1.7.1c.1.1.2.2.2.4s-.2.4-.4.5h0c.2.1.3.2.4.5s.1.4.1.5h-.5c-.1-.1-.1-.3-.2-.5,0-.2-.2-.3-.4-.3h-.2v.9ZM67,30.2c0,.9.7,1.6,1.5,1.6.9,0,1.5-.7,1.5-1.6s-.6-1.6-1.5-1.6c-.9,0-1.5.7-1.5,1.6ZM70.5,30.2c0,1.1-.9,2-2,2s-2-.9-2-2,.9-2,2-2,2,.9,2,2Z"/>
</svg>