<?xml version="1.0" encoding="UTF-8"?>
<svg id="Capa_1" xmlns="http://www.w3.org/2000/svg" version="1.1" viewBox="0 0 72.9 17.31">
  <!-- Generator: Adobe Illustrator 30.6.0, SVG Export Plug-In . SVG Version: 2.1.4 Build 75)  -->
  <defs>
    <style>
      .st0 {
        fill: #fff;
      }
    </style>
  </defs>
  <path class="st0" d="M57.6,17.3c-4.6.2-8.7-3.6-8.7-8.5S52.9.4,56.9.1c5.6-.3,9.2,4.1,9.3,8.4.1,4.9-4,8.9-8.6,8.8ZM53.2,8.7c0,2.4,2,4.4,4.4,4.4s4.3-2,4.3-4.3-2-4.3-4.4-4.4c-2.3-.1-4.3,1.9-4.3,4.3Z"/>
  <path class="st0" d="M26.9.1c1.5,0,2.9.2,4.2.9.5.3.9.7,1.3,1.1.5.6.5,1.2.1,1.9-.4.6-.9,1-1.7.9-.6-.1-1.1-.2-1.7-.4-1-.3-1.9-.7-3-.4-.1,0-.3.1-.4.1-.4.2-.6.5-.6.9s.3.7.6.9c.8.3,1.6.4,2.3.7,1.1.4,2.2.7,3.2,1.3,2.8,1.5,3.1,4.9,1.1,7.2-1.1,1.3-2.6,1.9-4.3,2-1.9.1-3.7-.1-5.4-1.1-1-.5-1.8-1.2-2-2.4,0-.7.3-1.3.9-1.7s1.3-.4,2-.1c.5.3,1,.6,1.6.9,1,.5,2.2.6,3.3.5.5-.1,1-.4,1-.9.1-.5-.1-.9-.7-1.1-.9-.3-1.8-.6-2.7-.9-1.2-.4-2.5-.8-3.5-1.6-2.4-1.8-2.2-6.8,1.5-8.2,1-.3,2-.5,2.9-.5Z"/>
  <path class="st0" d="M39.4,4.5h-3.2c-1.2,0-2.1-.9-2.1-2,0-1.2.8-2.2,2-2.2h10.8c1.1,0,2,1,2,2.2,0,1.1-.9,2-2.1,2h-3.1s-.1,0-.2.1v10.5c0,1.1-.7,2-1.8,2.1-1.1.2-2.1-.4-2.4-1.5-.1-.2-.1-.5-.1-.7V5.1c.2-.1.2-.3.2-.6Z"/>
  <path class="st0" d="M4.4,12.9h5.3c.9,0,1.6.4,1.9,1.3.6,1.3-.3,2.9-1.8,3H2c-1.1,0-2-1-2-2.1V2.3C0,1.1.9.2,2.1.2s2.1.8,2.1,2.1v10c.2.1.2.3.2.6Z"/>
  <path class="st0" d="M18.2,11.7v3.4c0,1.2-.8,2.1-1.9,2.2-1.4.1-2.3-.7-2.3-2v-7.4c0-1.1,1-1.9,2.1-1.9s2.1.9,2.1,2c.1,1.2,0,2.5,0,3.7h0Z"/>
  <path class="st0" d="M72.8,5.7v3.4c0,1.2-.9,2.1-2.1,2.1s-2.2-.9-2.2-2.1V2.1c0-1.3.9-2.1,2.2-2.1,1.2,0,2,.9,2,2.1.1,1.3.1,2.5.1,3.6h0Z"/>
  <path class="st0" d="M70.7,17.3c-1.2,0-2.1-.9-2.1-2.1s.9-2.1,2.2-2.1c1.2,0,2.1.9,2.1,2.1-.1,1.2-.9,2.1-2.2,2.1Z"/>
  <path class="st0" d="M16.1.1c1.2,0,2.1.9,2.1,2,0,1.3-.9,2.2-2.2,2.2-1.2,0-2.1-.9-2.1-2.1.1-1.2.9-2.1,2.2-2.1Z"/>
</svg>